<?xml version="1.0" standalone="no"?>
<!DOCTYPE svg PUBLIC "-//W3C//DTD SVG 20010904//EN"
 "http://www.w3.org/TR/2001/REC-SVG-20010904/DTD/svg10.dtd">
<svg version="1.0" xmlns="http://www.w3.org/2000/svg"
 width="474.000000pt" height="474.000000pt" viewBox="0 0 474.000000 474.000000"
 preserveAspectRatio="xMidYMid meet">

<g transform="translate(0.000000,474.000000) scale(0.100000,-0.100000)"
fill="#000000" stroke="none">
<path d="M2295 4260 c-1654 -5 -1732 -6 -1785 -24 -171 -57 -314 -169 -405
-316 -31 -49 -85 -190 -85 -220 0 -11 -4 -20 -10 -20 -7 0 -10 -447 -10 -1321
0 -877 3 -1318 10 -1314 6 3 10 -3 10 -14 0 -33 50 -162 83 -216 78 -127 182
-220 314 -281 144 -68 17 -64 1957 -64 1950 0 1809 -5 1961 65 174 80 323 248
375 423 7 23 17 42 22 42 10 0 11 2727 0 2732 -4 2 -18 32 -31 67 -94 260
-343 445 -621 463 -30 1 -833 1 -1785 -2z m1784 -481 c65 -14 123 -56 158
-116 l28 -48 3 -1228 c1 -830 -1 -1241 -8 -1267 -15 -56 -68 -120 -120 -147
l-45 -23 -1732 3 -1731 2 -43 30 c-24 17 -57 53 -74 80 l-30 48 0 1251 0 1251
25 44 c32 57 87 101 147 117 63 17 3343 20 3422 3z"/>
<path d="M1230 3307 c-105 -23 -208 -106 -252 -205 -34 -73 -32 -218 3 -292
34 -72 101 -140 174 -176 53 -26 71 -29 150 -29 78 0 98 4 152 29 146 67 234
234 202 384 -42 204 -232 332 -429 289z"/>
<path d="M2290 3309 c-173 -28 -339 -186 -379 -360 -25 -108 -3 -258 53 -352
93 -160 301 -259 480 -229 322 54 496 386 358 682 -37 79 -143 183 -225 220
-60 27 -165 51 -212 49 -11 -1 -45 -5 -75 -10z"/>
<path d="M3380 3310 c-111 -19 -220 -103 -267 -208 -39 -83 -39 -203 -1 -284
37 -80 105 -149 181 -184 54 -25 73 -29 152 -29 78 1 97 4 145 28 142 72 218
200 207 350 -14 209 -210 362 -417 327z"/>
<path d="M1013 2355 c-150 -41 -250 -144 -289 -294 -35 -138 19 -247 137 -281
19 -6 131 -10 251 -10 l216 0 17 53 c65 199 217 376 397 460 37 18 68 35 68
38 0 3 -24 14 -52 25 -47 16 -89 19 -373 21 -253 2 -331 -1 -372 -12z"/>
<path d="M3060 2363 c-36 -6 -120 -36 -119 -42 0 -4 32 -22 72 -41 181 -89
326 -258 391 -457 l18 -53 226 0 c200 0 232 3 267 19 84 39 119 96 120 191 0
125 -78 263 -186 327 -97 58 -139 63 -469 62 -162 -1 -306 -4 -320 -6z"/>
<path d="M1940 2111 c-123 -33 -221 -101 -295 -203 -54 -74 -82 -144 -96 -242
-13 -85 -2 -139 37 -186 53 -63 16 -60 783 -60 471 0 709 3 728 11 74 28 107
88 105 191 -3 191 -120 368 -297 453 -109 52 -142 55 -538 54 -314 0 -371 -3
-427 -18z"/>
</g>
</svg>
